# xmcd
#
# Track frame offsets:
# 150
# 16397
# 27669
# 41980
# 57077
# 73097
# 88187
# 98822
# 123977
# 144407
#
# Disc length: 2262 seconds
#
#
# Revision: 2
# Processed by: cddbd v1.5PL3 Copyright (c) Steve Scherf et al.
# Submitted via: FreeRIP 2.51 
#
DISCID=8d08d40a
DTITLE=Songs of Soil - The painted trees of Ghostwood
DYEAR=2000
DGENRE=Alternative
TTITLE0=Death of a harvester
TTITLE1=Seventeen
TTITLE2=Jesus
TTITLE3=Heather bend
TTITLE4=New deal
TTITLE5=Paige
TTITLE6=Kelly
TTITLE7=Fire away
TTITLE8=Sleep
TTITLE9=Lazy wheels
EXTD=Johan Elmeroth was here - )
EXTT0=
EXTT1=
EXTT2=
EXTT3=
EXTT4=
EXTT5=
EXTT6=
EXTT7=
EXTT8=
EXTT9=
PLAYORDER=
